<?xml version="1.0" encoding="UTF-8"?><svg id="Layer_1" xmlns="http://www.w3.org/2000/svg" xmlns:xlink="http://www.w3.org/1999/xlink" viewBox="0 0 600 587.89"><defs><style>.cls-1{fill:none;}.cls-2{clip-path:url(#clippath);}.cls-3{fill:#fff;}.cls-4{fill:#84b841;}.cls-5{fill:#3f9146;}.cls-6{clip-path:url(#clippath-1);}</style><clipPath id="clippath"><rect class="cls-1" x="-4.92" y="-5.59" width="610.92" height="599.47"/></clipPath><clipPath id="clippath-1"><rect class="cls-1" x="-4.92" y="-5.59" width="610.92" height="599.47"/></clipPath></defs><g id="BC_G_D_M"><g class="cls-2"><g class="cls-6"><path class="cls-5" d="M599.49,588.26l.92-294C600.91,132.29,467.09,.52,301.3,0,136.11-.51,1.18,130.41,.67,292.39c-.51,162.71,133.61,295.02,298.8,295.53l300.02,.34Z"/><path class="cls-4" d="M598.96,528.96l-168.36-165.7c-96.92-95.47-112.9-240.02-48.73-351.75,125.92,35.73,216.13,143.82,217.93,276.52l-.84,240.93Z"/><path class="cls-1" d="M600.4,294.26C600.91,132.28,467.09,.52,301.29,0,136.11-.51,1.18,130.42,.68,292.4c-.51,162.7,133.61,295.02,298.79,295.53l300.02,.34,.92-294Z"/></g></g></g><g><path class="cls-3" d="M139.43,354.66h-23.91l43.53-123.64h27.65l43.59,123.64h-23.91l-33.02-98.28h-.97l-32.96,98.28Zm.78-48.48h65.2v17.99h-65.2v-17.99Z"/><path class="cls-3" d="M346.62,272.74h-22.58c-.64-3.7-1.83-6.99-3.56-9.87-1.73-2.88-3.88-5.32-6.46-7.33-2.58-2.01-5.5-3.53-8.78-4.56-3.28-1.03-6.81-1.54-10.59-1.54-6.72,0-12.68,1.68-17.87,5.04-5.19,3.36-9.26,8.27-12.19,14.73-2.94,6.46-4.41,14.34-4.41,23.63s1.48,17.42,4.44,23.88c2.96,6.46,7.02,11.33,12.19,14.61,5.17,3.28,11.1,4.92,17.78,4.92,3.7,0,7.17-.49,10.41-1.48,3.24-.99,6.16-2.44,8.75-4.38,2.6-1.93,4.79-4.31,6.58-7.12,1.79-2.82,3.03-6.04,3.71-9.66l22.58,.12c-.85,5.88-2.67,11.39-5.46,16.54-2.8,5.15-6.45,9.69-10.96,13.61-4.51,3.92-9.78,6.98-15.82,9.18-6.04,2.19-12.74,3.29-20.1,3.29-10.87,0-20.57-2.51-29.1-7.55-8.53-5.03-15.25-12.29-20.16-21.79-4.91-9.5-7.37-20.89-7.37-34.17s2.48-24.72,7.43-34.2,11.69-16.73,20.22-21.76c8.53-5.03,18.19-7.55,28.98-7.55,6.88,0,13.28,.97,19.2,2.9,5.92,1.93,11.19,4.76,15.82,8.48,4.63,3.72,8.44,8.27,11.44,13.64,3,5.37,4.96,11.5,5.89,18.38Z"/><path class="cls-3" d="M381.51,354.66h-23.91l43.53-123.64h27.65l43.59,123.64h-23.91l-33.02-98.28h-.97l-32.96,98.28Zm.78-48.48h65.2v17.99h-65.2v-17.99Z"/></g></svg>