<?xml version="1.0" encoding="UTF-8"?><svg id="Layer_1" xmlns="http://www.w3.org/2000/svg" xmlns:xlink="http://www.w3.org/1999/xlink" viewBox="0 0 600 587.79"><defs><style>.cls-1{fill:none;}.cls-2{clip-path:url(#clippath);}.cls-3{fill:#fff;}.cls-4{fill:#3f9146;}.cls-5{fill:#30734e;}.cls-6{clip-path:url(#clippath-1);}</style><clipPath id="clippath"><rect class="cls-1" x="-4.88" y="-5.6" width="610.79" height="599.34"/></clipPath><clipPath id="clippath-1"><rect class="cls-1" x="-4.88" y="-5.59" width="610.79" height="599.34"/></clipPath></defs><g id="BC_G_DD_D"><g class="cls-2"><g class="cls-6"><path class="cls-5" d="M600.32,294.19C600.82,132.25,467.03,.51,301.27,0,136.12-.51,1.23,130.38,.72,292.33c-.51,162.67,133.58,294.95,298.72,295.47l299.95,.34,.92-293.94Z"/><path class="cls-4" d="M598.87,528.84l-168.33-165.66c-96.9-95.45-112.88-239.96-48.72-351.68,125.9,35.72,216.09,143.78,217.88,276.46l-.84,240.88Z"/><path class="cls-1" d="M600.32,294.19C600.82,132.25,467.03,.51,301.27,0,136.12-.51,1.23,130.38,.72,292.33c-.51,162.67,133.58,294.95,298.72,295.47l299.95,.34,.92-293.94Z"/></g></g></g><g><path class="cls-3" d="M148.43,354.59h-23.91l43.53-123.64h27.65l43.59,123.64h-23.91l-33.02-98.28h-.97l-32.96,98.28Zm.78-48.48h65.2v17.99h-65.2v-17.99Z"/><path class="cls-3" d="M255.58,354.59v-123.64h80.41v18.77h-58.01v33.56h53.85v18.77h-53.85v33.75h58.5v18.77h-80.89Z"/><path class="cls-3" d="M375.42,230.96l32.18,97.32h1.27l32.12-97.32h24.63l-43.59,123.64h-27.65l-43.53-123.64h24.57Z"/></g></svg>