<svg width="184" height="47" viewBox="0 0 184 47" fill="none" xmlns="http://www.w3.org/2000/svg">
<g clip-path="url(#clip0)">
<path d="M184 18.51C183.988 19.1664 183.783 19.8046 183.409 20.3445C183.036 20.8843 182.511 21.3018 181.901 21.5443C181.291 21.7869 180.623 21.8438 179.981 21.7078C179.338 21.5718 178.751 21.249 178.291 20.78C177.832 20.311 177.522 19.7167 177.399 19.0718C177.277 18.4268 177.347 17.7601 177.603 17.1553C177.858 16.5505 178.286 16.0346 178.834 15.6725C179.381 15.3104 180.024 15.1181 180.68 15.12C181.122 15.1185 181.561 15.2058 181.969 15.3765C182.377 15.5472 182.746 15.798 183.056 16.114C183.365 16.43 183.608 16.8049 183.771 17.2164C183.933 17.6279 184.011 18.0678 184 18.51ZM177.87 18.51C177.888 19.062 178.068 19.5966 178.387 20.0469C178.707 20.4972 179.153 20.8433 179.668 21.042C180.183 21.2406 180.746 21.283 181.285 21.1638C181.824 21.0446 182.316 20.7691 182.7 20.3718C183.084 19.9745 183.342 19.4729 183.442 18.9298C183.542 18.3867 183.48 17.826 183.263 17.318C183.047 16.8099 182.685 16.377 182.224 16.0732C181.763 15.7694 181.222 15.6083 180.67 15.61C180.294 15.6098 179.921 15.6854 179.575 15.8323C179.229 15.9792 178.915 16.1945 178.654 16.4651C178.393 16.7358 178.188 17.0564 178.054 17.4078C177.919 17.7591 177.857 18.134 177.87 18.51ZM179.94 20.51H179.47V16.55H180.94C181.81 16.55 182.19 16.94 182.19 17.64C182.203 17.7787 182.186 17.9185 182.141 18.0504C182.097 18.1823 182.025 18.3034 181.931 18.4061C181.837 18.5087 181.722 18.5905 181.595 18.6463C181.467 18.7021 181.329 18.7306 181.19 18.73L182.33 20.47H181.78L180.74 18.78H179.94V20.51ZM180.57 18.36C181.15 18.36 181.72 18.36 181.72 17.68C181.72 17 181.27 17 180.81 17H179.94V18.36H180.57Z" fill="#53575A"/>
<path d="M63.04 11.78L73.28 37.95H70.61L67.43 29.78H55.53L52.39 37.91H49.75L60.26 11.78H63.04ZM66.59 27.66L61.59 14.27L56.3 27.7L66.59 27.66Z" fill="#495965"/>
<path d="M77.56 11.78V37.95H75.26V11.78H77.56Z" fill="#495965"/>
<path d="M85.9001 20.9999V37.9999H83.5901V20.9999H80.3701V19.0599H83.5901V17.3399C83.5838 16.5923 83.6474 15.8457 83.7801 15.1099C83.8796 14.4801 84.115 13.8795 84.4701 13.3499C84.8292 12.8526 85.3165 12.4621 85.8801 12.2199C86.6071 11.9279 87.3872 11.7916 88.1701 11.8199C88.5101 11.8199 88.8301 11.8199 89.1701 11.8199L90.1701 11.9299V13.9299L89.2901 13.7999C89.0217 13.7634 88.751 13.7467 88.4801 13.7499C87.9766 13.7193 87.4737 13.8192 87.0201 14.0399C86.6941 14.219 86.432 14.4951 86.2701 14.8299C86.1024 15.1908 86.0105 15.5822 86.0001 15.9799C86.0001 16.4199 86.0001 16.8899 86.0001 17.4099V19.0499H89.6801V20.9899L85.9001 20.9999Z" fill="#495965"/>
<path d="M94.41 19.06V23.49H94.48C94.9908 22.0472 95.9468 20.8041 97.21 19.94C98.5119 19.0776 100.062 18.6697 101.62 18.78V21.08C100.648 21.0195 99.6738 21.1625 98.76 21.5C97.9336 21.8106 97.1812 22.2904 96.551 22.9086C95.9207 23.5268 95.4265 24.2698 95.1 25.09C94.7529 25.9683 94.5797 26.9057 94.59 27.85V37.95H92.28V19.06H94.41Z" fill="#495965"/>
<path d="M104.68 31.7099C104.895 32.5697 105.272 33.3807 105.79 34.0999C106.309 34.8137 106.969 35.4128 107.73 35.8599C108.589 36.3437 109.564 36.5856 110.55 36.5599C112.004 36.6573 113.439 36.1837 114.55 35.2399C115.549 34.2892 116.245 33.0647 116.55 31.7199H118.86C118.51 33.6274 117.569 35.3765 116.17 36.7199C114.604 37.9785 112.625 38.6063 110.62 38.4799C109.29 38.5145 107.97 38.2443 106.76 37.6899C105.712 37.2 104.801 36.4579 104.11 35.5299C103.403 34.5778 102.887 33.498 102.59 32.3499C102.253 31.1014 102.085 29.8132 102.09 28.5199C102.091 27.283 102.259 26.0519 102.59 24.8599C102.897 23.7094 103.412 22.6248 104.11 21.6599C104.806 20.7082 105.713 19.9312 106.76 19.3899C107.957 18.7927 109.282 18.4974 110.62 18.5299C111.897 18.4831 113.164 18.7635 114.302 19.3446C115.439 19.9257 116.41 20.7882 117.12 21.8499C117.811 22.8819 118.3 24.0357 118.56 25.2499C118.858 26.5274 118.983 27.8392 118.93 29.1499H104.37C104.366 30.0129 104.47 30.8729 104.68 31.7099ZM116.1 24.7099C115.829 23.9338 115.426 23.21 114.91 22.5699C114.393 21.9506 113.757 21.4407 113.04 21.0699C112.269 20.6802 111.414 20.4845 110.55 20.4999C109.676 20.4824 108.811 20.6781 108.03 21.0699C107.31 21.4355 106.673 21.9462 106.16 22.5699C105.634 23.2176 105.219 23.9473 104.93 24.7299C104.632 25.54 104.43 26.3825 104.33 27.2399H116.55C116.551 26.3636 116.413 25.4928 116.14 24.6599L116.1 24.7099Z" fill="#495965"/>
<path d="M133.12 22.78C132.862 22.2711 132.493 21.8267 132.04 21.48C131.572 21.1337 131.043 20.8792 130.48 20.73C129.87 20.566 129.241 20.4853 128.61 20.49C128.089 20.4927 127.569 20.5497 127.06 20.66C126.55 20.7616 126.059 20.9474 125.61 21.21C125.182 21.4537 124.818 21.7966 124.55 22.21C124.269 22.6734 124.13 23.2086 124.15 23.75C124.137 24.2125 124.27 24.6674 124.53 25.05C124.805 25.4095 125.144 25.7147 125.53 25.95C125.934 26.1956 126.363 26.3968 126.81 26.55C127.233 26.6993 127.664 26.8262 128.1 26.93L131.17 27.63C131.855 27.7272 132.527 27.9051 133.17 28.16C133.792 28.4015 134.372 28.7389 134.89 29.16C135.399 29.5791 135.815 30.1003 136.11 30.69C136.444 31.3601 136.609 32.1016 136.59 32.85C136.62 33.7732 136.377 34.6849 135.89 35.47C135.437 36.1798 134.832 36.7808 134.12 37.23C133.373 37.7003 132.551 38.0385 131.69 38.23C130.809 38.4187 129.911 38.5159 129.01 38.52C127.087 38.6091 125.19 38.0529 123.62 36.94C122.885 36.3191 122.293 35.5461 121.885 34.6742C121.478 33.8023 121.265 32.8524 121.26 31.89H123.56C123.564 32.569 123.718 33.2388 124.012 33.851C124.306 34.4631 124.732 35.0024 125.26 35.43C126.378 36.2457 127.737 36.6645 129.12 36.62C129.705 36.614 130.288 36.5503 130.86 36.43C131.446 36.3124 132.009 36.1032 132.53 35.81C132.993 35.5033 133.385 35.1009 133.68 34.63C134.02 34.1447 134.192 33.5619 134.17 32.97C134.188 32.4777 134.071 31.9898 133.83 31.56C133.598 31.1585 133.276 30.8162 132.89 30.56C132.477 30.2895 132.029 30.0743 131.56 29.92C131.06 29.75 130.56 29.6 130.04 29.48L127.04 28.82C126.331 28.643 125.636 28.4157 124.96 28.14C124.359 27.9086 123.796 27.5884 123.29 27.19C122.82 26.8158 122.441 26.3407 122.18 25.8C121.875 25.0849 121.737 24.3097 121.777 23.5334C121.817 22.757 122.033 22 122.41 21.32C122.832 20.649 123.404 20.0843 124.08 19.67C124.79 19.2461 125.563 18.9389 126.37 18.76C127.189 18.5623 128.028 18.4616 128.87 18.46C129.77 18.4552 130.666 18.5798 131.53 18.83C132.318 19.06 133.052 19.4441 133.69 19.96C134.314 20.4838 134.819 21.135 135.17 21.87C135.553 22.7096 135.764 23.6175 135.79 24.54H133.48C133.482 23.9348 133.359 23.3358 133.12 22.78Z" fill="#495965"/>
<path d="M150.94 21.66C149.945 20.807 148.658 20.3732 147.35 20.45C146.342 20.4309 145.347 20.672 144.46 21.15C143.643 21.5987 142.936 22.2239 142.39 22.98C141.827 23.7599 141.407 24.6334 141.15 25.56C140.59 27.4834 140.59 29.5265 141.15 31.45C141.412 32.375 141.831 33.2479 142.39 34.03C142.936 34.7861 143.643 35.4112 144.46 35.86C145.347 36.3379 146.342 36.579 147.35 36.56C148.038 36.5609 148.718 36.4214 149.35 36.15C149.977 35.8874 150.55 35.511 151.04 35.04C152.066 33.9993 152.698 32.6351 152.83 31.18H155.14C154.949 33.2075 154.054 35.104 152.61 36.54C151.173 37.8467 149.281 38.5363 147.34 38.46C146.023 38.4874 144.718 38.2174 143.52 37.67C142.439 37.1736 141.483 36.4426 140.72 35.53C139.944 34.5964 139.36 33.5193 139 32.36C138.213 29.8468 138.213 27.1532 139 24.64C139.362 23.4847 139.946 22.4113 140.72 21.48C141.488 20.5683 142.443 19.8318 143.52 19.32C144.715 18.7613 146.021 18.4842 147.34 18.51C149.186 18.4533 150.996 19.0206 152.48 20.12C153.208 20.7177 153.807 21.4581 154.238 22.2956C154.67 23.1331 154.926 24.05 154.99 24.99H152.68C152.449 23.7299 151.843 22.569 150.94 21.66Z" fill="#495965"/>
<path d="M170.05 19.32C171.125 19.8345 172.079 20.5706 172.85 21.48C173.62 22.4138 174.204 23.4865 174.57 24.64C175.343 27.1552 175.343 29.8448 174.57 32.36C174.206 33.5176 173.622 34.594 172.85 35.53C172.084 36.4393 171.128 37.1697 170.05 37.67C168.842 38.1915 167.54 38.4605 166.225 38.4605C164.909 38.4605 163.608 38.1915 162.4 37.67C161.321 37.1697 160.366 36.4393 159.6 35.53C158.824 34.5964 158.24 33.5193 157.88 32.36C157.093 29.8468 157.093 27.1532 157.88 24.64C158.242 23.4848 158.826 22.4114 159.6 21.48C160.37 20.5706 161.325 19.8345 162.4 19.32C163.604 18.7862 164.907 18.5104 166.225 18.5104C167.542 18.5104 168.845 18.7862 170.05 19.32ZM163.33 21.15C162.514 21.5964 161.809 22.2221 161.27 22.98C160.704 23.7593 160.281 24.6328 160.02 25.56C159.46 27.4835 159.46 29.5266 160.02 31.45C160.285 32.3756 160.708 33.2484 161.27 34.03C161.809 34.788 162.514 35.4137 163.33 35.86C164.226 36.3198 165.218 36.5596 166.225 36.5596C167.232 36.5596 168.224 36.3198 169.12 35.86C169.932 35.4082 170.635 34.7835 171.18 34.03C171.742 33.2484 172.165 32.3756 172.43 31.45C172.99 29.5266 172.99 27.4835 172.43 25.56C172.169 24.6328 171.746 23.7593 171.18 22.98C170.635 22.2266 169.932 21.6019 169.12 21.15C168.224 20.6903 167.232 20.4505 166.225 20.4505C165.218 20.4505 164.226 20.6903 163.33 21.15Z" fill="#495965"/>
<path fill-rule="evenodd" clip-rule="evenodd" d="M22.8155 23.2734L16.3818 16.7051L16.1476 16.4659C12.4605 12.6924 6.45057 12.6924 2.78014 16.4509C-0.920202 20.2077 -0.920202 26.3157 2.78014 30.0742C6.45057 33.8443 12.4439 33.8443 16.1309 30.0742L22.8155 23.2734Z" fill="white"/>
<path fill-rule="evenodd" clip-rule="evenodd" d="M22.8134 23.2637V32.5403L22.8267 32.8826C22.8267 38.2013 18.5897 42.5397 13.3673 42.5397C8.14499 42.5397 3.90796 38.2279 3.90796 32.9091C3.90796 27.5838 8.15994 23.2637 13.3673 23.2637H22.8134Z" fill="white"/>
<path fill-rule="evenodd" clip-rule="evenodd" d="M22.8134 23.2637V32.5403L22.8267 32.8826C22.8267 38.2013 18.5897 42.5397 13.3673 42.5397C8.14499 42.5397 3.90796 38.2279 3.90796 32.9091C3.90796 27.5838 8.15994 23.2637 13.3673 23.2637H22.8134Z" fill="white"/>
<path fill-rule="evenodd" clip-rule="evenodd" d="M22.8134 23.2637V32.5403L22.8267 32.8826C22.8267 38.2013 18.5897 42.5397 13.3673 42.5397C8.14499 42.5397 3.90796 38.2279 3.90796 32.9091C3.90796 32.316 3.9711 31.7411 4.06747 31.1894C7.75286 33.8047 12.8506 33.4342 16.1289 30.0778L22.8134 23.272V23.2637Z" fill="white"/>
<path fill-rule="evenodd" clip-rule="evenodd" d="M13.3677 24.4796C8.8166 24.4796 5.11792 28.2531 5.11792 32.9088C5.11792 37.5479 8.8166 41.3131 13.3677 41.3131C17.9337 41.3131 21.6207 37.5479 21.6207 32.9088V32.5433V24.4796H13.3859H13.3677Z" fill="#76BC21"/>
<mask id="mask0" mask-type="alpha" maskUnits="userSpaceOnUse" x="13" y="23" width="20" height="24">
<path d="M13.3616 46.5226H32.2658V23.2637H13.3616V46.5226Z" fill="white"/>
</mask>
<g mask="url(#mask0)">
<path fill-rule="evenodd" clip-rule="evenodd" d="M22.8114 23.2637L29.2401 29.8203L29.5042 30.0595C33.178 33.828 33.1946 39.9443 29.5042 43.7028C25.8056 47.4629 19.8272 47.4629 16.1269 43.7028C12.4398 39.9443 12.4398 33.8346 16.1269 30.0678L22.8114 23.2637Z" fill="white"/>
</g>
<path fill-rule="evenodd" clip-rule="evenodd" d="M16.9902 30.934C13.7601 34.2189 13.7601 39.5576 16.9902 42.8342C20.2037 46.1208 25.4327 46.1208 28.6611 42.8342C31.8763 39.5576 31.8763 34.2189 28.6611 30.934L28.392 30.688L22.8124 24.9905L16.9902 30.9223V30.934Z" fill="#76BC21"/>
<path fill-rule="evenodd" clip-rule="evenodd" d="M22.8142 23.2625H31.9247L32.2553 23.2458C37.481 23.2458 41.7163 27.5643 41.7163 32.8897C41.7163 38.2184 37.4943 42.5202 32.2719 42.5202C27.0479 42.5202 22.8142 38.2117 22.8142 32.8897V23.2625Z" fill="white"/>
<path fill-rule="evenodd" clip-rule="evenodd" d="M24.0171 32.8905C24.0171 37.5396 27.7025 41.3064 32.2685 41.3064C36.8146 41.3064 40.5016 37.5396 40.5016 32.8905C40.5016 28.2348 36.8146 24.4796 32.2685 24.4796H31.9229H24.0171V32.8689V32.8905Z" fill="#76BC21"/>
<path fill-rule="evenodd" clip-rule="evenodd" d="M22.8142 23.2638L29.2429 16.6972L29.4921 16.4513C33.1808 12.6928 39.1708 12.6762 42.8579 16.433C46.5466 20.2015 46.5466 26.3012 42.8579 30.068C39.1708 33.8348 33.1808 33.8348 29.4921 30.068L22.8142 23.2638Z" fill="white"/>
<path fill-rule="evenodd" clip-rule="evenodd" d="M30.3536 29.1994C33.5555 32.4943 38.7795 32.4943 42.0096 29.1994C45.2413 25.9194 45.2413 20.5957 42.0096 17.3075C38.7795 14.0225 33.5555 14.0225 30.3536 17.3075L30.0894 17.5633L24.5198 23.2659L30.3237 29.1927L30.3536 29.1994Z" fill="#76BC21"/>
<path fill-rule="evenodd" clip-rule="evenodd" d="M22.8142 23.2649V13.9799V13.6343C22.8142 8.31894 27.0313 3.99219 32.2719 3.99219C37.481 3.99219 41.6997 8.2907 41.6997 13.6194C41.6997 18.9447 37.481 23.2649 32.2719 23.2649H22.8142Z" fill="white"/>
<path fill-rule="evenodd" clip-rule="evenodd" d="M32.2692 22.0418C36.8153 22.0418 40.5007 18.275 40.5007 13.6209C40.5007 8.98507 36.8153 5.20996 32.2692 5.20996C27.7032 5.20996 24.0012 8.98507 24.0012 13.6209L24.0178 13.9814V22.0418H32.2211H32.2692Z" fill="#FF9015"/>
<path fill-rule="evenodd" clip-rule="evenodd" d="M22.8119 23.2646L16.3782 16.6981L16.1273 16.4671C12.4403 12.6936 12.4403 6.58069 16.1273 2.82386C19.7978 -0.941285 25.7911 -0.941285 29.4898 2.82386C33.1785 6.58069 33.1785 12.6936 29.4898 16.4521L22.8119 23.2646Z" fill="white"/>
<path fill-rule="evenodd" clip-rule="evenodd" d="M28.6424 15.667C31.8559 12.3804 31.8559 7.04677 28.6424 3.76349C25.414 0.480205 20.2033 0.480205 16.9731 3.76349C13.7414 7.04677 13.7414 12.3804 16.9731 15.667L17.2091 15.9196L22.8103 21.6072L28.6241 15.682L28.6424 15.667Z" fill="#2A7DE2"/>
<path fill-rule="evenodd" clip-rule="evenodd" d="M22.8134 23.3423H13.7113L13.3673 23.3523C8.15994 23.3523 3.90796 19.0322 3.90796 13.7085C3.90796 8.38974 8.14499 4.07129 13.3507 4.07129C18.5747 4.07129 22.8134 8.38974 22.8134 13.7118V23.3423Z" fill="white"/>
<path fill-rule="evenodd" clip-rule="evenodd" d="M21.6186 13.714C21.6186 9.06492 17.9333 5.3031 13.3523 5.3031C8.80454 5.3031 5.10254 9.06492 5.10254 13.7074C5.10254 18.3548 8.80454 22.1299 13.3523 22.1299L13.7112 22.12H21.6186V13.7323V13.714Z" fill="#2A7DE2"/>
<path fill-rule="evenodd" clip-rule="evenodd" d="M22.8118 23.3424L0 23.3524C0 20.8883 0.908884 18.4175 2.7765 16.5299C6.44693 12.7714 12.4402 12.7714 16.1273 16.5299L22.8118 23.3424Z" fill="white"/>
<path fill-rule="evenodd" clip-rule="evenodd" d="M15.2799 17.3921L21.1153 23.3406H13.3657C9.17854 23.3406 5.61611 26.1237 4.37989 29.9919C4.12733 29.7692 3.85982 29.5433 3.6272 29.289C0.395426 26.0024 0.395426 20.687 3.6272 17.3921C6.82408 14.1105 12.0647 14.1105 15.2799 17.3921Z" fill="#2A7DE2"/>
<path fill-rule="evenodd" clip-rule="evenodd" d="M15.2978 17.4031L19.9153 22.1153L13.3471 22.1353C9.56699 22.1353 6.37842 19.5449 5.41138 16.009C8.54678 14.2162 12.6542 14.6465 15.2828 17.3964L15.2978 17.4031Z" fill="#0052AE"/>
<path fill-rule="evenodd" clip-rule="evenodd" d="M21.6186 13.7328L21.612 20.3974L16.9762 15.6702C14.306 12.9419 13.8358 8.81451 15.5937 5.61597C19.0598 6.60627 21.6186 9.85466 21.6186 13.7145V13.7328Z" fill="#0052AE"/>
<path fill-rule="evenodd" clip-rule="evenodd" d="M23.9805 20.4076V13.7231C23.9805 9.8699 26.536 6.61653 30.0054 5.61792C31.7617 8.82477 31.431 12.8458 28.6761 15.6256L23.9805 20.4076Z" fill="#0052AE"/>
<path fill-rule="evenodd" clip-rule="evenodd" d="M25.7024 22.0446L30.3349 17.3091C33.0034 14.5842 37.0543 14.1222 40.193 15.9118C39.2027 19.4459 36.1787 21.9848 32.4584 22.048L25.7024 22.0446Z" fill="#FFE800"/>
<path fill-rule="evenodd" clip-rule="evenodd" d="M25.7024 24.4775H32.259C36.0391 24.4775 39.2243 27.0513 40.198 30.5938C37.0427 32.3933 32.9934 31.9214 30.3133 29.1964L25.7024 24.4775Z" fill="#00754A"/>
<path fill-rule="evenodd" clip-rule="evenodd" d="M24.0171 32.8455V26.1925L28.6612 30.9131C31.3314 33.6464 31.7833 37.792 30.027 40.9905C26.5593 39.9969 24.0171 36.7336 24.0171 32.877V32.8455Z" fill="#00754A"/>
<path fill-rule="evenodd" clip-rule="evenodd" d="M16.9961 30.9176L21.612 26.2103L21.6219 32.8982C21.6219 36.7531 19.0831 39.9931 15.6153 40.9917C13.859 37.7882 14.3293 33.6509 16.9961 30.9309V30.9176Z" fill="#00754A"/>
<path fill-rule="evenodd" clip-rule="evenodd" d="M13.4131 24.4775H19.9398L15.3106 29.2047C12.6471 31.9264 8.56294 32.3966 5.4292 30.6071C6.41452 27.0613 9.60309 24.4775 13.3848 24.4775H13.4131Z" fill="#00754A"/>
</g>
<defs>
<clipPath id="clip0">
<rect width="184" height="46.98" fill="white"/>
</clipPath>
</defs>
</svg>
