<svg width="72" height="72" viewBox="0 0 72 72" fill="none" xmlns="http://www.w3.org/2000/svg">
<g clip-path="url(#clip0)">
<path fill-rule="evenodd" clip-rule="evenodd" d="M30 18C30 14.6863 32.6863 12 36 12C39.3137 12 42 14.6863 42 18H48L60 18V24V27V30C63.3137 30 66 32.6863 66 36C66 39.3137 63.3137 42 60 42V45V48V54H46.3946C44.3198 50.4132 40.4417 48 36 48C31.5583 48 27.6802 50.4132 25.6054 54H12V46.3946C15.5868 44.3198 18 40.4417 18 36C18 31.5583 15.5868 27.6802 12 25.6054V18H24H30ZM24 60H12C8.68629 60 6 57.3137 6 54V48V45V42C9.31371 42 12 39.3137 12 36C12 32.6863 9.31371 30 6 30V27V24V18C6 14.6863 8.68629 12 12 12H25.6054C27.6802 8.41319 31.5583 6 36 6C40.4417 6 44.3198 8.41319 46.3946 12H60C63.3137 12 66 14.6863 66 18V25.6054C69.5868 27.6802 72 31.5583 72 36C72 40.4417 69.5868 44.3198 66 46.3946V54C66 57.3137 63.3137 60 60 60H48H45H42C42 56.6863 39.3137 54 36 54C32.6863 54 30 56.6863 30 60H27H24Z" fill="#00953B"/>
<path opacity="0.3" fill-rule="evenodd" clip-rule="evenodd" d="M30 18.0002C30 14.6865 32.6863 12.0002 36 12.0002C39.3137 12.0002 42 14.6865 42 18.0002H48L60 18.0002V24.0002V27.0002V30.0002C63.3137 30.0002 66 32.6865 66 36.0002C66 39.3139 63.3137 42.0002 60 42.0002V45.0002V48.0002V54.0002H46.3946C44.3198 50.4134 40.4417 48.0002 36 48.0002C31.5583 48.0002 27.6802 50.4134 25.6054 54.0002H12V46.3949C15.5868 44.32 18 40.4419 18 36.0002C18 31.5585 15.5868 27.6805 12 25.6056V18.0002H24H30Z" fill="#76BC21"/>
</g>
<defs>
<clipPath id="clip0">
<rect width="72" height="72" fill="white"/>
</clipPath>
</defs>
</svg>
