<svg width="72" height="72" viewBox="0 0 72 72" fill="none" xmlns="http://www.w3.org/2000/svg">
<path opacity="0.3" d="M15 27H57V15H15V27ZM21 16.5C23.49 16.5 25.5 18.51 25.5 21C25.5 23.49 23.49 25.5 21 25.5C18.51 25.5 16.5 23.49 16.5 21C16.5 18.51 18.51 16.5 21 16.5ZM15 57H57V45H15V57ZM21 46.5C23.49 46.5 25.5 48.51 25.5 51C25.5 53.49 23.49 55.5 21 55.5C18.51 55.5 16.5 53.49 16.5 51C16.5 48.51 18.51 46.5 21 46.5Z" fill="#76BC21"/>
<path d="M60 39H12C10.35 39 9 40.35 9 42V60C9 61.65 10.35 63 12 63H60C61.65 63 63 61.65 63 60V42C63 40.35 61.65 39 60 39ZM57 57H15V45H57V57ZM21 55.5C23.49 55.5 25.5 53.49 25.5 51C25.5 48.51 23.49 46.5 21 46.5C18.51 46.5 16.5 48.51 16.5 51C16.5 53.49 18.51 55.5 21 55.5ZM60 9H12C10.35 9 9 10.35 9 12V30C9 31.65 10.35 33 12 33H60C61.65 33 63 31.65 63 30V12C63 10.35 61.65 9 60 9ZM57 27H15V15H57V27ZM21 25.5C23.49 25.5 25.5 23.49 25.5 21C25.5 18.51 23.49 16.5 21 16.5C18.51 16.5 16.5 18.51 16.5 21C16.5 23.49 18.51 25.5 21 25.5Z" fill="#00953B"/>
</svg>
