<svg width="72" height="72" viewBox="0 0 72 72" fill="none" xmlns="http://www.w3.org/2000/svg">
<rect width="72" height="72" fill="white"/>
<path fill-rule="evenodd" clip-rule="evenodd" d="M36 18C39.3137 18 42 15.3137 42 12C42 8.68629 39.3137 6 36 6C32.6863 6 30 8.68629 30 12C30 15.3137 32.6863 18 36 18Z" fill="#00953B"/>
<path fill-rule="evenodd" clip-rule="evenodd" d="M36 66C39.3137 66 42 63.3137 42 60C42 56.6863 39.3137 54 36 54C32.6863 54 30 56.6863 30 60C30 63.3137 32.6863 66 36 66Z" fill="#00953B"/>
<path fill-rule="evenodd" clip-rule="evenodd" d="M60 42C63.3137 42 66 39.3137 66 36C66 32.6863 63.3137 30 60 30C56.6863 30 54 32.6863 54 36C54 39.3137 56.6863 42 60 42Z" fill="#00953B"/>
<path fill-rule="evenodd" clip-rule="evenodd" d="M12 42C15.3137 42 18 39.3137 18 36C18 32.6863 15.3137 30 12 30C8.68629 30 6 32.6863 6 36C6 39.3137 8.68629 42 12 42Z" fill="#00953B"/>
<path fill-rule="evenodd" clip-rule="evenodd" d="M18 24C21.3137 24 24 21.3137 24 18C24 14.6863 21.3137 12 18 12C14.6863 12 12 14.6863 12 18C12 21.3137 14.6863 24 18 24Z" fill="#00953B"/>
<path fill-rule="evenodd" clip-rule="evenodd" d="M18 60C21.3137 60 24 57.3137 24 54C24 50.6863 21.3137 48 18 48C14.6863 48 12 50.6863 12 54C12 57.3137 14.6863 60 18 60Z" fill="#00953B"/>
<path fill-rule="evenodd" clip-rule="evenodd" d="M54 60C57.3137 60 60 57.3137 60 54C60 50.6863 57.3137 48 54 48C50.6863 48 48 50.6863 48 54C48 57.3137 50.6863 60 54 60Z" fill="#00953B"/>
<path fill-rule="evenodd" clip-rule="evenodd" d="M54 24C57.3137 24 60 21.3137 60 18C60 14.6863 57.3137 12 54 12C50.6863 12 48 14.6863 48 18C48 21.3137 50.6863 24 54 24Z" fill="#00953B"/>
<path fill-rule="evenodd" clip-rule="evenodd" d="M39 45V57H33V45H39Z" fill="#00953B"/>
<path fill-rule="evenodd" clip-rule="evenodd" d="M39 15V27H33V15H39Z" fill="#00953B"/>
<path fill-rule="evenodd" clip-rule="evenodd" d="M54.3637 21.8794L43.7571 32.486L39.5145 28.2433L50.1211 17.6367L54.3637 21.8794Z" fill="#00953B"/>
<path fill-rule="evenodd" clip-rule="evenodd" d="M17.3785 50.4839L27.9851 39.8773L32.2277 44.12L21.6211 54.7266L17.3785 50.4839Z" fill="#00953B"/>
<path fill-rule="evenodd" clip-rule="evenodd" d="M21.6215 17.3785L32.2281 27.9851L27.9855 32.2277L17.3789 21.6211L21.6215 17.3785Z" fill="#00953B"/>
<path fill-rule="evenodd" clip-rule="evenodd" d="M50.1206 54.3227L39.514 43.7161L43.7567 39.4735L54.3633 50.0801L50.1206 54.3227Z" fill="#00953B"/>
<path fill-rule="evenodd" clip-rule="evenodd" d="M57 39L45 39L45 33L57 33L57 39Z" fill="#00953B"/>
<path fill-rule="evenodd" clip-rule="evenodd" d="M27 39L15 39L15 33L27 33L27 39Z" fill="#00953B"/>
<path opacity="0.3" d="M36 42C39.3137 42 42 39.3137 42 36C42 32.6863 39.3137 30 36 30C32.6863 30 30 32.6863 30 36C30 39.3137 32.6863 42 36 42Z" fill="#76BC21"/>
<path fill-rule="evenodd" clip-rule="evenodd" d="M48 36C48 42.6274 42.6274 48 36 48C29.3726 48 24 42.6274 24 36C24 29.3726 29.3726 24 36 24C42.6274 24 48 29.3726 48 36ZM42 36C42 39.3137 39.3137 42 36 42C32.6863 42 30 39.3137 30 36C30 32.6863 32.6863 30 36 30C39.3137 30 42 32.6863 42 36Z" fill="#00953B"/>
</svg>
