<svg width="72" height="72" viewBox="0 0 72 72" fill="none" xmlns="http://www.w3.org/2000/svg">
<path opacity="0.3" fill-rule="evenodd" clip-rule="evenodd" d="M31.77 19.2299L33.51 20.9999H36H60V26.1845L55.5 23.9999L36 33.4666V47.7733C36 48.8567 36.0515 49.9335 36.1518 50.9999H12V14.9999H27.51L31.77 19.2299Z" fill="#76BC21"/>
<path d="M42 48.8489V39.3112L55.5 33L69 39.3112V48.8489C69 58.0214 63.2529 66.5039 55.5 69C47.7471 66.4837 42 58.0214 42 48.8489Z" fill="#00953B"/>
<path fill-rule="evenodd" clip-rule="evenodd" d="M36 15H60C63.3 15 66 17.7 66 21V29.0975L60 26.1847V21H33.51L31.74 19.23L27.51 15H12V51H36.1518C36.3444 53.0475 36.717 55.0566 37.251 57H12C8.7 57 6 54.3 6 51L6.03 15C6.03 11.7 8.7 9 12 9H30L36 15Z" fill="#00953B"/>
</svg>
