<svg width="72" height="72" viewBox="0 0 72 72" fill="none" xmlns="http://www.w3.org/2000/svg">
<rect width="72" height="72" fill="white"/>
<path opacity="0.3" d="M21 51H51V21H21V51ZM27 27H45V45H27V27Z" fill="#76BC21"/>
<path d="M63 33V27H57V21C57 17.7 54.3 15 51 15H45V9H39V15H33V9H27V15H21C17.7 15 15 17.7 15 21V27H9V33H15V39H9V45H15V51C15 54.3 17.7 57 21 57H27V63H33V57H39V63H45V57H51C54.3 57 57 54.3 57 51V45H63V39H57V33H63ZM51 51H21V21H51V51ZM45 27H27V45H45V27ZM39 39H33V33H39V39Z" fill="#00953B"/>
</svg>
