<svg width="72" height="72" viewBox="0 0 72 72" fill="none" xmlns="http://www.w3.org/2000/svg">
<rect width="72" height="72" fill="white"/>
<path opacity="0.3" d="M48 22.7405L31.5 15.5405L15 22.7405V33.5405C15 44.0405 21.99 53.7605 31.5 56.7605C32.25 56.5205 32.97 56.1605 33.69 55.8605C33.24 54.3305 33 52.6805 33 51.0005C33 42.0905 39.48 34.7105 48 33.2705V22.7405Z" fill="#76BC21"/>
<path opacity="0.3" d="M51 39C44.37 39 39 44.37 39 51C39 57.63 44.37 63 51 63C57.63 63 63 57.63 63 51C63 44.37 57.63 39 51 39ZM51 43.14C52.86 43.14 54.36 44.67 54.36 46.5C54.36 48.33 52.83 49.86 51 49.86C49.17 49.86 47.64 48.33 47.64 46.5C47.64 44.67 49.14 43.14 51 43.14ZM51 59.25C48.21 59.25 45.78 57.87 44.28 55.74C44.43 53.58 48.81 52.5 51 52.5C53.19 52.5 57.57 53.58 57.72 55.74C56.22 57.87 53.79 59.25 51 59.25Z" fill="#76BC21"/>
<path d="M50.9996 49.8596C52.8553 49.8596 54.3596 48.3553 54.3596 46.4996C54.3596 44.644 52.8553 43.1396 50.9996 43.1396C49.144 43.1396 47.6396 44.644 47.6396 46.4996C47.6396 48.3553 49.144 49.8596 50.9996 49.8596Z" fill="#00953B"/>
<path d="M54 33.27V18.81L31.5 9L9 18.81V33.54C9 47.16 18.6 59.91 31.5 63C33.15 62.61 34.74 62.04 36.3 61.35C39.54 65.97 44.91 69 51 69C60.93 69 69 60.93 69 51C69 42.09 62.52 34.71 54 33.27ZM33 51C33 52.68 33.24 54.33 33.69 55.86C32.97 56.19 32.25 56.52 31.5 56.76C21.99 53.76 15 44.04 15 33.54V22.74L31.5 15.54L48 22.74V33.27C39.48 34.71 33 42.09 33 51ZM51 63C44.37 63 39 57.63 39 51C39 44.37 44.37 39 51 39C57.63 39 63 44.37 63 51C63 57.63 57.63 63 51 63Z" fill="#00953B"/>
<path d="M50.9998 52.5C48.8098 52.5 44.4298 53.58 44.2798 55.74C45.7798 57.87 48.2398 59.25 50.9998 59.25C53.7598 59.25 56.2198 57.87 57.7198 55.74C57.5698 53.58 53.1898 52.5 50.9998 52.5Z" fill="#00953B"/>
</svg>
