<svg width="72" height="72" viewBox="0 0 72 72" fill="none" xmlns="http://www.w3.org/2000/svg">
<path fill-rule="evenodd" clip-rule="evenodd" d="M66 9H45V18H24V24H45V33H66V9ZM60 15H51V27H60V15ZM45 54V63H66V39H45V48H39V54H45ZM39 24H33V54H39V24ZM51 45H60V57H51V45Z" fill="#00953B"/>
<path fill-rule="evenodd" clip-rule="evenodd" d="M27 21C27 27.6274 21.6274 33 15 33C8.37258 33 3 27.6274 3 21C3 14.3726 8.37258 9 15 9C21.6274 9 27 14.3726 27 21ZM21 20.9999C21 24.3136 18.3138 26.9999 15 26.9999C11.6863 26.9999 9.00005 24.3136 9.00005 20.9999C9.00005 17.6861 11.6863 14.9999 15 14.9999C18.3138 14.9999 21 17.6861 21 20.9999Z" fill="#00953B"/>
<path opacity="0.3" d="M15 26.9999C18.3137 26.9999 21 24.3136 21 20.9999C21 17.6862 18.3137 14.9999 15 14.9999C11.6863 14.9999 9 17.6862 9 20.9999C9 24.3136 11.6863 26.9999 15 26.9999Z" fill="#76BC21"/>
<rect opacity="0.3" x="51" y="15" width="9" height="12" fill="#76BC21"/>
<rect opacity="0.3" x="51" y="45" width="9" height="12" fill="#76BC21"/>
</svg>
