<svg width="72" height="72" viewBox="0 0 72 72" fill="none" xmlns="http://www.w3.org/2000/svg">
<g clip-path="url(#clip0)">
<rect width="72" height="72" fill="white"/>
<path d="M66.5595 48.08L63.576 47.86L62.991 44.86C62.016 39.72 57.609 36 52.5 36C48.483 36 44.856 38.28 42.984 41.92L42.009 43.82L39.9225 44.04C35.9835 44.48 33 47.9 33 52C33 56.42 36.4905 60 40.8 60H66.15C69.3675 60 72 57.3 72 54C72 50.9 69.621 48.28 66.5595 48.08Z" fill="#00953B"/>
<path opacity="0.3" fill-rule="evenodd" clip-rule="evenodd" d="M60.3002 18H11.7002V51.3H26.717C27.0262 44.8529 31.5838 39.2747 37.9761 37.9748C41.0281 32.9288 46.4416 29.7 52.5002 29.7C55.3069 29.7 57.9608 30.3934 60.3002 31.6244V18ZM60.3002 39.4676C58.3324 37.3174 55.5406 36 52.5002 36C48.4832 36 44.8562 38.28 42.9842 41.92L42.0092 43.82L39.9227 44.04C36.2102 44.4547 33.3465 47.5166 33.0294 51.3H60.3002V39.4676Z" fill="#76BC21"/>
<path d="M66.5595 48.08L63.576 47.86L62.991 44.86C62.016 39.72 57.609 36 52.5 36C48.483 36 44.856 38.28 42.984 41.92L42.009 43.82L39.9225 44.04C35.9835 44.48 33 47.9 33 52C33 56.42 36.4905 60 40.8 60H66.15C69.3675 60 72 57.3 72 54C72 50.9 69.621 48.28 66.5595 48.08Z" fill="#00953B"/>
<path fill-rule="evenodd" clip-rule="evenodd" d="M12 18.0002H36H60V31.4703C62.3591 32.652 64.4124 34.3747 66 36.4841V18.0002C66 14.6864 63.3137 12.0002 60 12.0002H36H12C8.7 12.0002 6 14.7002 6 18.0002V51.0001H0V60.0001H29.1149C27.5845 57.6993 26.7 54.9355 26.7 52C26.7 51.6646 26.7116 51.3311 26.7343 51.0001H12V18.0002ZM33.0599 51.0001C33.0204 51.3279 33 51.6617 33 52C33 56.42 36.4905 60 40.8 60H66.15C69.3598 60 71.9874 57.313 72 54.0238V53.9765C71.9958 52.8983 71.7039 51.879 71.1959 51.0001H66V48.0387L63.576 47.86L62.991 44.86C62.5674 42.6265 61.4957 40.6612 60 39.1526V51.0001H33.0599Z" fill="#00953B"/>
</g>
<defs>
<clipPath id="clip0">
<rect width="72" height="72" fill="white"/>
</clipPath>
</defs>
</svg>
