<svg width="72" height="72" viewBox="0 0 72 72" fill="none" xmlns="http://www.w3.org/2000/svg">
<path opacity="0.3" d="M18 12.0001V60.0001H52.8L44.25 51.4501C41.76 53.1001 38.88 53.9401 36 53.9401C32.16 53.9401 28.35 52.4701 25.41 49.5601C19.56 43.7101 19.56 34.2301 25.41 28.4101C28.35 25.4701 32.16 24.0001 36 24.0001C39.84 24.0001 43.65 25.4701 46.59 28.3801C51.72 33.5101 52.35 41.4001 48.51 47.2201L54 52.7401V27.0001L39 12.0001H18Z" fill="#76BC21"/>
<path d="M42 6H18C14.7 6 12.03 8.7 12.03 12L12 60C12 63.3 14.67 66 17.97 66H54C57.3 66 60 63.3 60 60V24L42 6ZM54 52.74L48.48 47.22C52.32 41.4 51.69 33.51 46.56 28.38C43.65 25.47 39.84 24 36 24C32.16 24 28.35 25.47 25.41 28.38C19.56 34.23 19.56 43.71 25.41 49.53C28.32 52.44 32.16 53.91 36 53.91C38.88 53.91 41.76 53.07 44.25 51.42L52.8 60H18V12H39L54 27V52.74ZM44.97 38.97C44.97 41.37 44.04 43.62 42.33 45.3C40.65 46.98 38.4 47.94 36 47.94C33.6 47.94 31.35 47.01 29.67 45.3C27.99 43.62 27.03 41.37 27.03 38.97C27.03 36.57 27.96 34.32 29.67 32.64C31.38 30.96 33.6 30 36 30C38.4 30 40.65 30.93 42.33 32.64C44.04 34.32 44.97 36.57 44.97 38.97Z" fill="#00953B"/>
</svg>
