<svg width="592" height="592" viewBox="0 0 592 592" fill="none" xmlns="http://www.w3.org/2000/svg">
<path fill-rule="evenodd" clip-rule="evenodd" d="M110.613 78.9336C106.195 78.9336 102.613 82.5153 102.613 86.9336V505.067C102.613 509.485 106.195 513.067 110.613 513.067H173.547C177.965 513.067 181.547 509.485 181.547 505.067L181.547 426.24H102.613V410.453H181.547V394.667H102.613V378.88H181.547L181.547 86.9336C181.547 82.5153 177.965 78.9336 173.547 78.9336H110.613ZM142.08 149.973C150.799 149.973 157.867 142.905 157.867 134.187C157.867 125.468 150.799 118.4 142.08 118.4C133.361 118.4 126.294 125.468 126.294 134.187C126.294 142.905 133.361 149.973 142.08 149.973Z" fill="#00953B"/>
<path fill-rule="evenodd" clip-rule="evenodd" d="M315.84 78.9336C311.422 78.9336 307.84 82.5153 307.84 86.9336V505.067C307.84 509.485 311.422 513.067 315.84 513.067H378.773C383.191 513.067 386.773 509.485 386.773 505.067L386.773 426.24H307.84V410.453H386.773V394.667H307.84V378.88H386.773L386.773 86.9336C386.773 82.5153 383.191 78.9336 378.773 78.9336H315.84ZM347.307 149.973C356.025 149.973 363.093 142.905 363.093 134.187C363.093 125.468 356.025 118.4 347.307 118.4C338.588 118.4 331.52 125.468 331.52 134.187C331.52 142.905 338.588 149.973 347.307 149.973Z" fill="#00953B"/>
<path opacity="0.3" fill-rule="evenodd" clip-rule="evenodd" d="M228.445 77.2668C224.037 76.9586 220.215 80.2817 219.906 84.6892L190.739 501.804C190.431 506.212 193.754 510.034 198.161 510.343L260.941 514.733C265.349 515.041 269.172 511.718 269.48 507.31L274.979 428.675L196.238 423.169L197.339 407.421L276.08 412.927L277.181 397.179L198.44 391.673L199.541 375.925L278.282 381.431L298.647 90.1954C298.956 85.7878 295.632 81.965 291.225 81.6568L228.445 77.2668ZM254.88 150.329C263.577 150.937 271.121 144.379 271.729 135.682C272.337 126.984 265.78 119.44 257.082 118.832C248.385 118.224 240.841 124.782 240.233 133.479C239.625 142.177 246.182 149.721 254.88 150.329Z" fill="#76BC21"/>
<path fill-rule="evenodd" clip-rule="evenodd" d="M418.453 78.9336C414.035 78.9336 410.453 82.5153 410.453 86.9336V505.067C410.453 509.485 414.035 513.067 418.453 513.067H481.386C485.805 513.067 489.386 509.485 489.386 505.067L489.386 426.24H410.453V410.453H489.386V394.667H410.453V378.88H489.386L489.386 86.9336C489.386 82.5153 485.805 78.9336 481.386 78.9336H418.453ZM449.92 149.973C458.639 149.973 465.707 142.905 465.707 134.187C465.707 125.468 458.639 118.4 449.92 118.4C441.201 118.4 434.133 125.468 434.133 134.187C434.133 142.905 441.201 149.973 449.92 149.973Z" fill="#00953B"/>
</svg>
