<svg width="72" height="72" viewBox="0 0 72 72" fill="none" xmlns="http://www.w3.org/2000/svg">
<path d="M72 36C72 46.2209 71.9661 46.3058 72 72C65.5 72 45.6613 72 36 72C16.1177 72 0 55.8823 0 36C0 16.1177 16.1177 0 36 0C55.8823 0 72 16.1177 72 36Z" fill="#2A7DE2"/>
<path fill-rule="evenodd" clip-rule="evenodd" d="M71.993 43.7801C71.9966 41.447 72 39.2295 72 36.0002C72 19.4406 60.8193 5.4925 45.5951 1.29297C38.8429 14.6553 41.1667 31.5179 52.5202 42.8714L71.9892 62.2824C71.9804 52.0642 71.987 47.7545 71.993 43.7801Z" fill="#0055B9"/>
<path d="M33.1709 34.6016H29.749C29.6865 34.1589 29.5589 33.7656 29.3662 33.4219C29.1735 33.0729 28.9261 32.776 28.624 32.5313C28.3219 32.2865 27.973 32.099 27.5771 31.9688C27.1865 31.8385 26.762 31.7734 26.3037 31.7734C25.4756 31.7734 24.7542 31.9792 24.1396 32.3906C23.5251 32.7969 23.0485 33.3906 22.71 34.1719C22.3714 34.9479 22.2021 35.8906 22.2021 37C22.2021 38.1406 22.3714 39.099 22.71 39.875C23.0537 40.651 23.5329 41.237 24.1475 41.6328C24.762 42.0286 25.473 42.2266 26.2803 42.2266C26.7334 42.2266 27.1527 42.1667 27.5381 42.0469C27.9287 41.9271 28.2751 41.7526 28.5771 41.5234C28.8792 41.2891 29.1292 41.0052 29.3271 40.6719C29.5303 40.3385 29.6709 39.9583 29.749 39.5312L33.1709 39.5469C33.0824 40.2812 32.861 40.9896 32.5068 41.6719C32.1579 42.349 31.6865 42.9557 31.0928 43.4922C30.5042 44.0234 29.8011 44.4453 28.9834 44.7578C28.1709 45.0651 27.2516 45.2188 26.2256 45.2188C24.7985 45.2188 23.5225 44.8958 22.3975 44.25C21.2777 43.6042 20.3923 42.6693 19.7412 41.4453C19.0954 40.2214 18.7725 38.7396 18.7725 37C18.7725 35.2552 19.1006 33.7708 19.7568 32.5469C20.4131 31.3229 21.3037 30.3906 22.4287 29.75C23.5537 29.1042 24.8193 28.7812 26.2256 28.7812C27.1527 28.7812 28.012 28.9115 28.8037 29.1719C29.6006 29.4323 30.3063 29.8125 30.9209 30.3125C31.5355 30.8073 32.0355 31.4141 32.4209 32.1328C32.8115 32.8516 33.0615 33.6745 33.1709 34.6016Z" fill="white"/>
<path d="M35.5967 29H39.7686L44.1748 39.75H44.3623L48.7686 29H52.9404V45H49.6592V34.5859H49.5264L45.3857 44.9219H43.1514L39.0107 34.5469H38.8779V45H35.5967V29Z" fill="white"/>
</svg>
