<svg width="24" height="23" viewBox="0 0 24 23" fill="none" xmlns="http://www.w3.org/2000/svg">
<g clip-path="url(#clip0)">
<path fill-rule="evenodd" clip-rule="evenodd" d="M11.9986 6.09701e-06C9.1469 -0.0028423 6.38742 0.992425 4.21463 2.80745C2.04184 4.62248 0.597752 7.13862 0.141169 9.90497C-0.315415 12.6713 0.245347 15.5071 1.72296 17.904C3.20058 20.3009 5.49846 22.1024 8.20481 22.9855C8.80886 23.0941 9.02249 22.7249 9.02249 22.4136C9.02249 22.1023 9.02249 21.3928 9.02249 20.4083C5.67074 21.125 4.96356 18.8228 4.96356 18.8228C4.7412 18.1093 4.26881 17.4963 3.63023 17.0925C2.54735 16.3686 3.71862 16.3686 3.71862 16.3686C4.09822 16.4213 4.46063 16.5582 4.77843 16.7689C5.09622 16.9796 5.36105 17.2586 5.55288 17.5848C5.71587 17.8753 5.93562 18.1312 6.19951 18.338C6.4634 18.5448 6.76624 18.6983 7.09066 18.7898C7.41508 18.8813 7.75468 18.9089 8.08999 18.8711C8.4253 18.8333 8.7497 18.7307 9.04459 18.5694C9.09082 17.9739 9.35208 17.4141 9.78124 16.9912C7.11457 16.6944 4.31531 15.6808 4.31531 11.1996C4.297 10.0289 4.73747 8.89619 5.54551 8.03589C5.18563 7.01803 5.22769 5.90448 5.66338 4.91565C5.66338 4.91565 6.67258 4.59711 8.96356 6.12465C10.9308 5.59382 13.0073 5.59382 14.9746 6.12465C17.2656 4.59711 18.2674 4.91565 18.2674 4.91565C18.7092 5.89402 18.7617 6.99958 18.4148 8.01417C19.2228 8.87447 19.6633 10.0072 19.645 11.1778C19.645 15.7098 16.8383 16.7016 14.1643 16.9695C14.451 17.2527 14.6724 17.5933 14.8135 17.968C14.9546 18.3427 15.012 18.7429 14.982 19.1413C14.982 20.7196 14.982 21.9937 14.982 22.3774C14.982 22.7611 15.1956 23.0579 15.807 22.9421C18.4826 22.0357 20.746 20.229 22.1975 17.8414C23.6491 15.4538 24.1952 12.6389 23.7396 9.8939C23.2839 7.14891 21.8557 4.65051 19.7073 2.8401C17.5589 1.02968 14.8285 0.0237439 11.9986 6.09701e-06Z" fill="#212328"/>
</g>
<defs>
<clipPath id="clip0">
<rect width="24" height="23" fill="white"/>
</clipPath>
</defs>
</svg>
