<svg width="72" height="72" viewBox="0 0 72 72" fill="none" xmlns="http://www.w3.org/2000/svg">
<path d="M72 36C72 46.2209 71.9661 46.3058 72 72C65.5 72 45.6613 72 36 72C16.1177 72 0 55.8823 0 36C0 16.1177 16.1177 0 36 0C55.8823 0 72 16.1177 72 36Z" fill="#2A7DE2"/>
<path fill-rule="evenodd" clip-rule="evenodd" d="M71.993 43.7801C71.9966 41.447 72 39.2295 72 36.0002C72 19.4406 60.8193 5.4925 45.5951 1.29297C38.8429 14.6553 41.1667 31.5179 52.5202 42.8714L71.9892 62.2824C71.9804 52.0642 71.987 47.7545 71.993 43.7801Z" fill="#0055B9"/>
<path d="M23.7334 44.1736H18V28H23.7808C25.4076 28 26.8081 28.3238 27.9821 28.9714C29.1562 29.6137 30.0591 30.5377 30.6909 31.7433C31.3279 32.9489 31.6465 34.3915 31.6465 36.071C31.6465 37.7557 31.3279 39.2036 30.6909 40.4145C30.0591 41.6254 29.1509 42.5546 27.9663 43.2022C26.787 43.8498 25.376 44.1736 23.7334 44.1736ZM21.4195 41.2437H23.5913C24.6021 41.2437 25.4524 41.0647 26.1421 40.7067C26.837 40.3434 27.3582 39.7827 27.7057 39.0246C28.0585 38.2612 28.2348 37.2766 28.2348 36.071C28.2348 34.8759 28.0585 33.8992 27.7057 33.1411C27.3582 32.383 26.8397 31.8249 26.15 31.4669C25.4603 31.1089 24.61 30.9299 23.5992 30.9299H21.4195V41.2437Z" fill="white"/>
<path d="M37.212 44.1736L32.5843 28H36.3197L38.9968 39.2378H39.1311L42.0847 28H45.283L48.2287 39.2615H48.3709L51.048 28H54.7834L50.1556 44.1736H46.823L43.7431 33.5992H43.6167L40.5447 44.1736H37.212Z" fill="white"/>
</svg>
