<svg width="72" height="72" viewBox="0 0 72 72" fill="none" xmlns="http://www.w3.org/2000/svg">
<path d="M72 36C72 46.2209 71.9661 46.3058 72 72C65.5 72 45.6613 72 36 72C16.1177 72 0 55.8823 0 36C0 16.1177 16.1177 0 36 0C55.8823 0 72 16.1177 72 36Z" fill="#76BC23"/>
<path fill-rule="evenodd" clip-rule="evenodd" d="M71.993 43.7801C71.9966 41.447 72 39.2295 72 36.0002C72 19.4406 60.8193 5.4925 45.5951 1.29297C38.8429 14.6553 41.1667 31.5179 52.5202 42.8714L71.9892 62.2824C71.9804 52.0642 71.987 47.7545 71.993 43.7801Z" fill="#00754A"/>
<path d="M20.2031 45V29H26.5156C27.7292 29 28.763 29.2318 29.6172 29.6953C30.4714 30.1536 31.1224 30.7917 31.5703 31.6094C32.0234 32.4219 32.25 33.3594 32.25 34.4219C32.25 35.4844 32.0208 36.4219 31.5625 37.2344C31.1042 38.0469 30.4401 38.6797 29.5703 39.1328C28.7057 39.5859 27.6589 39.8125 26.4297 39.8125H22.4062V37.1016H25.8828C26.5339 37.1016 27.0703 36.9896 27.4922 36.7656C27.9193 36.5365 28.237 36.2214 28.4453 35.8203C28.6589 35.4141 28.7656 34.9479 28.7656 34.4219C28.7656 33.8906 28.6589 33.4271 28.4453 33.0312C28.237 32.6302 27.9193 32.3203 27.4922 32.1016C27.0651 31.8776 26.5234 31.7656 25.8672 31.7656H23.5859V45H20.2031Z" fill="white"/>
<path d="M34.4473 29H38.6191L43.0254 39.75H43.2129L47.6191 29H51.791V45H48.5098V34.5859H48.377L44.2363 44.9219H42.002L37.8613 34.5469H37.7285V45H34.4473V29Z" fill="white"/>
</svg>
