<svg width="72" height="72" viewBox="0 0 72 72" fill="none" xmlns="http://www.w3.org/2000/svg">
<path d="M72 36C72 46.2209 71.9661 46.3058 72 72C65.5 72 45.6613 72 36 72C16.1177 72 0 55.8823 0 36C0 16.1177 16.1177 0 36 0C55.8823 0 72 16.1177 72 36Z" fill="#F5761B"/>
<path fill-rule="evenodd" clip-rule="evenodd" d="M71.993 43.7801C71.9966 41.447 72 39.2295 72 36.0002C72 19.4406 60.8193 5.4925 45.5951 1.29297C38.8429 14.6553 41.1667 31.5179 52.5202 42.8714L71.9892 62.2824C71.9804 52.0642 71.987 47.7545 71.993 43.7801Z" fill="#D45900"/>
<path d="M17.4824 44H13.8574L19.3809 28H23.7402L29.2559 44H25.6309L21.623 31.6563H21.498L17.4824 44ZM17.2559 37.7109H25.8184V40.3516H17.2559V37.7109Z" fill="white"/>
<path d="M36.8535 44H31.1816V28H36.9004C38.5098 28 39.8952 28.3203 41.0566 28.9609C42.2181 29.5964 43.1113 30.5104 43.7363 31.7031C44.3665 32.8958 44.6816 34.3229 44.6816 35.9844C44.6816 37.651 44.3665 39.0833 43.7363 40.2812C43.1113 41.4792 42.2129 42.3984 41.041 43.0391C39.8743 43.6797 38.4785 44 36.8535 44ZM34.5645 41.1016H36.7129C37.7129 41.1016 38.554 40.9245 39.2363 40.5703C39.9238 40.2109 40.4395 39.6562 40.7832 38.9062C41.1322 38.151 41.3066 37.1771 41.3066 35.9844C41.3066 34.8021 41.1322 33.8359 40.7832 33.0859C40.4395 32.3359 39.9264 31.7839 39.2441 31.4297C38.5618 31.0755 37.7207 30.8984 36.7207 30.8984H34.5645V41.1016Z" fill="white"/>
<path d="M47.1875 44V28H57.7812V30.7891H50.5703V34.6016H57.0781V37.3906H50.5703V44H47.1875Z" fill="white"/>
</svg>
